<svg width="20" height="25" viewBox="0 0 20 25" fill="none" xmlns="http://www.w3.org/2000/svg">
<path d="M1.56213 14.2742C1.56213 14.2742 4.32465 15.8457 9.31317 15.8457C14.3017 15.8457 17.4942 14.2742 17.4942 14.2742C19.1532 13.4332 19.3663 10.7354 18.6091 9.36556C18.1639 8.55507 17.5018 7.97288 16.6761 7.63423C16.4782 5.27886 14.0696 3.48664 12.0186 3.13657C9.88013 2.77509 8.73098 2.39077 9.25609 0.762177C9.98287 -1.51329 6.17775 1.78576 5.80104 4.37704C3.58646 4.42651 1.76761 6.00564 1.63824 8.04518C1.10552 8.41428 0.66032 8.90514 0.378741 9.54059C-0.671473 11.8846 0.705981 13.8214 1.56213 14.278V14.2742Z" fill="white"/>
<path d="M2.27116 17.6989C2.58698 17.874 3.80082 18.498 5.80231 18.8937L5.28101 15.4805C2.86095 15.0163 1.56721 14.2781 1.56721 14.2781C1.50633 14.2477 1.44164 14.2058 1.37695 14.1602" fill="#FF39D8"/>
<path d="M13.2358 18.8326C12.1818 19.0456 10.9299 19.2093 9.51058 19.2207C9.4497 19.2207 9.38881 19.2207 9.32793 19.2207C7.9657 19.2207 6.78611 19.0837 5.79678 18.8896C3.79528 18.4977 2.58526 17.8737 2.26562 17.6948L3.2093 21.4353C3.41858 22.2648 3.94749 22.9611 4.65905 23.3492C5.10044 23.589 5.72829 23.8553 6.58063 24.0532C7.34166 24.2282 8.28152 24.35 9.42687 24.35C9.4535 24.35 9.48014 24.35 9.51058 24.35C10.7016 24.3462 11.6643 24.2244 12.4367 24.0494C13.2891 23.8591 13.9093 23.6042 14.3431 23.3721C15.0546 22.9916 15.5836 22.2952 15.7928 21.4581L16.7403 17.71C16.3636 17.8927 15.1193 18.4482 13.232 18.8326H13.2358Z" fill="white"/>
<path d="M5.79854 18.8898C6.78788 19.0838 7.96746 19.2208 9.3297 19.2208C9.39058 19.2208 9.45146 19.2208 9.51234 19.2208V15.8419C9.44385 15.8419 9.37916 15.8457 9.31067 15.8457C7.73916 15.8457 6.38834 15.6896 5.27344 15.4766L5.79474 18.8898H5.79854Z" fill="#FFE500"/>
<path d="M9.51367 19.2209C10.9292 19.2095 12.1849 19.0459 13.2389 18.8328L13.7602 15.4158C12.5768 15.6517 11.1461 15.8305 9.51367 15.8419V19.2209Z" fill="#B5FF37"/>
<path d="M13.2363 18.8326C15.1237 18.4483 16.3679 17.8927 16.7447 17.7101L17.635 14.1865C17.5894 14.217 17.5437 14.2474 17.4943 14.274C17.4943 14.274 16.113 14.9514 13.7576 15.4156L13.2363 18.8326Z" fill="#0A66EB"/>
</svg>
